<svg width="73" height="73" viewBox="0 0 73 73" fill="none" xmlns="http://www.w3.org/2000/svg">
<g clip-path="url(#clip0_2287_4732)">
<path d="M6 12.2819V11.3219C6.37529 10.6055 6.859 10.0127 7.7466 10.0103C11.3601 10.0007 14.9749 9.99354 18.5884 10.0139C19.5356 10.0187 20.1622 10.5875 20.4029 11.5343C20.5006 11.9207 20.5721 12.3143 20.6591 12.7043C20.9903 14.1971 21.3227 15.691 21.6587 17.203H22.4247C36.4833 17.203 50.5419 17.2114 64.6005 17.1874C65.7061 17.185 66.5246 17.4862 67.0012 18.523V19.4829C66.9273 19.6617 66.8332 19.8357 66.7808 20.0205C64.5088 28.0231 62.2391 36.027 59.9719 44.0308C59.5061 45.6735 59.0855 46.0035 57.4139 46.0035C46.9319 46.0035 36.45 46.0023 25.968 46.0059C24.804 46.0059 24.0021 46.7463 23.9962 47.7939C23.9902 48.8427 24.792 49.5867 25.9489 49.6035C26.1074 49.6059 26.267 49.6035 26.4255 49.6035C36.7883 49.6035 47.1512 49.6035 57.514 49.6035C57.732 49.6035 57.9525 49.5927 58.1693 49.6131C58.9044 49.6815 59.4393 50.0535 59.7181 50.7458C60.2054 51.9566 59.3333 53.177 57.9644 53.1998C57.0935 53.2142 56.2225 53.2022 55.3516 53.2022C58.0907 53.8202 60.0398 56.2441 59.8373 58.8565C59.6121 61.7508 57.5224 63.8279 54.6689 63.9923C52.1729 64.1363 49.6996 62.1684 49.2492 59.6844C48.9764 58.1773 49.2445 56.7757 50.1142 55.5193C50.972 54.2798 52.1813 53.5586 53.6348 53.2298H30.0724C33.4131 53.9318 34.9059 56.6185 34.6724 59.0089C34.39 61.914 32.1585 63.9779 29.3766 63.9983C26.6578 64.0187 24.4108 61.9956 24.0498 59.1733C23.7555 56.8693 25.1006 53.9978 28.5116 53.2226C27.6228 53.201 26.7317 53.225 25.8429 53.1962C23.5554 53.1206 21.829 52.0826 20.8973 49.9647C20.0205 47.9715 20.2909 46.0335 21.6968 44.3572C22.2198 43.7332 22.9382 43.2736 23.6149 42.6976C21.4907 33.0666 19.3461 23.3456 17.1956 13.5995H16.5011C13.8013 13.5995 11.1004 13.5647 8.40187 13.6163C7.29506 13.6367 6.47418 13.3223 6.00119 12.2795L6 12.2819Z" fill="white"/>
</g>
<defs>
<clipPath id="clip0_2287_4732">
<rect width="61" height="54" fill="white" transform="translate(6 10)"/>
</clipPath>
</defs>
</svg>
