<svg width="73" height="73" viewBox="0 0 73 73" fill="none" xmlns="http://www.w3.org/2000/svg">
<g clip-path="url(#clip0_2287_4730)">
<g clip-path="url(#clip1_2287_4730)">
<path d="M18.9762 7C19.0917 7 19.2072 7 19.3228 7C20.4005 7.62436 21.4736 8.25566 22.5617 8.86037C22.6922 8.93321 22.9406 8.91471 23.0746 8.83609C24.1038 8.23832 25.1191 7.61511 26.1379 7C26.3308 7 26.5226 7 26.7155 7C27.7343 7.63708 28.7508 8.27879 29.7777 8.902C29.8597 8.95171 30.0399 8.91356 30.1381 8.85459C31.1569 8.24295 32.1699 7.61974 33.1841 7C33.377 7 33.5687 7 33.7616 7C34.7874 7.63361 35.8108 8.26954 36.8423 8.8939C36.9209 8.94131 37.0768 8.94246 37.1554 8.8939C38.1846 8.27069 39.2057 7.63361 40.2303 7C40.4232 7 40.6149 7 40.8078 7C41.8174 7.61627 42.8212 8.24063 43.8423 8.83725C43.9694 8.91124 44.2166 8.90431 44.3471 8.828C45.3705 8.2337 46.3789 7.6128 47.392 7C47.5849 7 47.7766 7 47.9695 7C49.0033 7.64518 50.0337 8.29382 51.0745 8.92743C51.1484 8.97253 51.3043 8.94362 51.3921 8.8939C52.4872 8.26838 53.5776 7.63246 54.6692 7C54.7847 7 54.9002 7 55.0157 7C55.1485 7.12719 55.2698 7.27171 55.4177 7.3804C56.7518 8.35972 58.0814 9.34714 59.4363 10.2987C59.8371 10.5808 60.0012 10.8687 60 11.3763C59.9815 19.5855 59.9861 27.7948 59.9861 36.004C59.9861 44.5601 59.9827 53.1162 59.9965 61.6722C59.9965 62.1093 59.8637 62.366 59.5102 62.6146C58.0941 63.6112 56.6871 64.6253 55.3079 65.6728C54.9325 65.9584 54.6715 65.9433 54.2949 65.7167C53.4055 65.1802 52.4837 64.6992 51.5908 64.1697C51.3043 63.9997 51.0918 63.9974 50.8065 64.1766C49.8766 64.7582 48.9202 65.2959 47.9903 65.8751C47.7235 66.0405 47.5317 66.0405 47.2661 65.8751C46.335 65.297 45.3786 64.7571 44.4476 64.1778C44.1807 64.0124 43.9902 64.009 43.721 64.1755C42.79 64.7547 41.8347 65.2947 40.9025 65.8728C40.638 66.037 40.4486 66.0439 40.1794 65.8763C39.2484 65.297 38.3082 64.7316 37.3483 64.2021C37.1646 64.1003 36.8296 64.0992 36.646 64.1998C35.6861 64.7293 34.747 65.2959 33.8159 65.8751C33.5491 66.0416 33.3597 66.0393 33.0928 65.874C32.1618 65.2959 31.2054 64.7582 30.2732 64.1789C30.0052 64.0124 29.8146 64.0136 29.5478 64.1789C28.6168 64.7582 27.6603 65.2959 26.7293 65.874C26.4625 66.0393 26.2696 66.037 26.0051 65.8728C25.0741 65.2935 24.1176 64.7559 23.1878 64.1743C22.9013 63.9951 22.6899 63.9986 22.4034 64.1685C21.4921 64.7062 20.5553 65.1987 19.6473 65.7399C19.3066 65.9433 19.0675 65.9538 18.7336 65.7029C17.3025 64.6276 15.8505 63.5789 14.3939 62.5406C14.1132 62.3405 14.0023 62.1336 14.0023 61.7856C14.0104 44.9254 14.0104 28.0642 14 11.2017C14 10.8248 14.1271 10.6132 14.4228 10.4028C15.8181 9.40958 17.1985 8.39557 18.58 7.38156C18.7267 7.27403 18.8457 7.12834 18.9762 7ZM43.6841 33.9066C43.3652 33.9517 43.0834 33.9933 42.8015 34.0291C40.3435 34.3459 38.4167 36.5613 38.3844 39.1073C38.3532 41.6198 40.2753 43.9704 42.723 44.2352C44.1507 44.3901 45.6038 44.3242 47.0454 44.3485C48.2144 44.3681 49.0045 45.0642 49.0045 46.0909C49.0045 47.1234 48.2259 47.8195 47.0466 47.8218C44.9489 47.8264 42.8512 47.8229 40.7535 47.8229C40.5502 47.8229 40.3481 47.8229 40.1425 47.8229V51.3032H43.7187V54.7291H47.1725V51.2986C48.9652 51.2361 50.4126 50.5782 51.4418 49.1561C52.5807 47.5824 52.7898 45.847 52.0355 44.071C51.2916 42.3216 49.9378 41.1966 48.0273 40.9931C46.5984 40.8405 45.1464 40.9018 43.7048 40.8833C43.0164 40.8752 42.4619 40.6324 42.1004 40.0381C41.3923 38.8749 42.2124 37.4331 43.6159 37.4169C45.7713 37.3915 47.9268 37.4088 50.0822 37.4088C50.2867 37.4088 50.4911 37.4088 50.699 37.4088V33.9066H47.1321V30.5107H43.6817V33.9054L43.6841 33.9066ZM53.0277 16.6325H20.9746V20.0226H53.0277V16.6325ZM20.9572 26.96H53.0058V23.5792H20.9572V26.96ZM20.9688 37.3695H34.8636V33.9702H20.9688V37.3695ZM20.9561 44.3034H34.8752V40.9284H20.9561V44.3034ZM34.8613 51.2743V47.8623H20.9896V51.2743H34.8613Z" fill="white"/>
</g>
</g>
<defs>
<clipPath id="clip0_2287_4730">
<rect width="73" height="73" fill="white"/>
</clipPath>
<clipPath id="clip1_2287_4730">
<rect width="46" height="59" fill="white" transform="translate(14 7)"/>
</clipPath>
</defs>
</svg>
