<svg width="26" height="26" viewBox="0 0 26 26" fill="none" xmlns="http://www.w3.org/2000/svg">
<g id="icon / check-circle_checked">
<path id="Vector" d="M13 23.8333C7.01671 23.8333 2.16663 18.9832 2.16663 13C2.16663 7.01674 7.01671 2.16666 13 2.16666C18.9832 2.16666 23.8333 7.01674 23.8333 13C23.8333 18.9832 18.9832 23.8333 13 23.8333ZM13 21.6667C15.2985 21.6667 17.5029 20.7536 19.1282 19.1282C20.7535 17.5029 21.6666 15.2985 21.6666 13C21.6666 10.7014 20.7535 8.49705 19.1282 6.87173C17.5029 5.24642 15.2985 4.33332 13 4.33332C10.7014 4.33332 8.49702 5.24642 6.8717 6.87173C5.24639 8.49705 4.33329 10.7014 4.33329 13C4.33329 15.2985 5.24639 17.5029 6.8717 19.1282C8.49702 20.7536 10.7014 21.6667 13 21.6667ZM13 18.4167C11.5634 18.4167 10.1856 17.846 9.1698 16.8302C8.15398 15.8143 7.58329 14.4366 7.58329 13C7.58329 11.5634 8.15398 10.1856 9.1698 9.16983C10.1856 8.15401 11.5634 7.58332 13 7.58332C14.4365 7.58332 15.8143 8.15401 16.8301 9.16983C17.8459 10.1856 18.4166 11.5634 18.4166 13C18.4166 14.4366 17.8459 15.8143 16.8301 16.8302C15.8143 17.846 14.4365 18.4167 13 18.4167Z" fill="#2D5278"/>
</g>
</svg>
