<svg width="26" height="26" viewBox="0 0 26 26" fill="none" xmlns="http://www.w3.org/2000/svg">
<g id="icon / check-circle_blanck">
<path id="Vector" d="M12.9998 23.8334C11.5012 23.8334 10.0929 23.5489 8.77484 22.9797C7.45678 22.4114 6.31025 21.6397 5.33525 20.6647C4.36025 19.6897 3.58856 18.5431 3.02017 17.2251C2.45106 15.907 2.1665 14.4987 2.1665 13.0001C2.1665 11.5015 2.45106 10.0931 3.02017 8.77508C3.58856 7.45703 4.36025 6.3105 5.33525 5.3355C6.31025 4.3605 7.45678 3.58844 8.77484 3.01933C10.0929 2.45094 11.5012 2.16675 12.9998 2.16675C14.4984 2.16675 15.9068 2.45094 17.2248 3.01933C18.5429 3.58844 19.6894 4.3605 20.6644 5.3355C21.6394 6.3105 22.4111 7.45703 22.9795 8.77508C23.5486 10.0931 23.8332 11.5015 23.8332 13.0001C23.8332 14.4987 23.5486 15.907 22.9795 17.2251C22.4111 18.5431 21.6394 19.6897 20.6644 20.6647C19.6894 21.6397 18.5429 22.4114 17.2248 22.9797C15.9068 23.5489 14.4984 23.8334 12.9998 23.8334ZM12.9998 21.6667C15.4193 21.6667 17.4686 20.8272 19.1478 19.148C20.8269 17.4688 21.6665 15.4195 21.6665 13.0001C21.6665 10.5806 20.8269 8.53133 19.1478 6.85216C17.4686 5.173 15.4193 4.33341 12.9998 4.33341C10.5804 4.33341 8.53109 5.173 6.85192 6.85216C5.17275 8.53133 4.33317 10.5806 4.33317 13.0001C4.33317 15.4195 5.17275 17.4688 6.85192 19.148C8.53109 20.8272 10.5804 21.6667 12.9998 21.6667Z" fill="#000"/>
</g>
</svg>
