<svg width="347" height="120" viewBox="0 0 347 120" fill="none" xmlns="http://www.w3.org/2000/svg">
<path d="M3.6145 0V120.115H231.491L347 0H3.6145Z" fill="#D80909" fill-opacity="0.75"/>
<path d="M0 0V120.115H215.991L331.939 0H0Z" fill="#ED2024"/>
<g clip-path="url(#clip0_2931_2592)">
<path d="M95.6865 38.9998C92.5653 38.9998 87.0619 42.5681 87.0619 50.5817H168.089C169.18 38.6873 160.829 38.9998 160.829 38.9998H95.6865ZM86.3669 54.8064C86.3669 54.8064 86.3595 57.2717 86.3595 58.5622C86.3595 61.1066 88.8958 64.1969 92.7615 64.1969C95.1822 64.1969 112.395 64.2135 112.395 64.2135L111.769 69.0485H85.1895L83.7811 79.998H114.931C117.546 79.998 123.649 77.8801 124.689 71.6369C124.689 71.6314 125.908 61.3695 125.938 60.9871C126.094 58.9924 124.882 54.8064 119.475 54.8064H86.3687H86.3669ZM128.745 54.8064H167.62L166.761 59.1891C166.761 59.1891 165.903 64.1988 159.892 64.1988H140.845L139.05 79.9998H125.857L128.745 54.8064ZM169.65 50.5817H209.538C211.333 42.8347 207.587 38.9998 203.682 38.9998C199.065 38.9998 187.796 38.9998 171.131 38.9998L169.648 50.5817H169.65ZM179.485 79.9998H166.294L169.182 54.8064H182.531L179.486 79.9998H179.485ZM206.026 79.9998H192.833L195.722 54.8064H209.07L206.026 79.9998ZM48.9672 54.8082H84.6412L83.4712 64.2006H61.5364L60.8341 69.0521H82.8477L81.52 80.0016H46L48.9672 54.8082ZM50.7625 38.9998H86.4365L84.9144 50.5817H49.5137L50.7625 38.9998Z" fill="white"/>
</g>
<defs>
<clipPath id="clip0_2931_2592">
<rect width="164" height="41" fill="white" transform="translate(46 39)"/>
</clipPath>
</defs>
</svg>
