<svg width="198" height="32" viewBox="0 0 198 32" fill="none" xmlns="http://www.w3.org/2000/svg">
<g id="Hisense">
<path id="Vector" d="M69.169 17.4888L65.7869 16.0667C63.4209 15.1174 61.6339 14.4151 61.9439 13.4343C62.1204 12.8862 63.2064 12.5223 66.4499 12.5186C71.5372 12.5106 76.6077 13.6222 76.6077 13.6222L77.0607 8.97937C77.0607 8.97937 72.2936 7.95259 66.6053 7.88609C64.0262 7.85685 62.1715 7.95259 60.3925 8.20837C57.3788 8.63881 52.2791 9.95572 52.026 14.1717C51.7649 18.4886 56.9171 20.3733 60.0643 21.6836L62.674 22.7199C65.6505 23.9155 67.048 24.3525 67.0006 25.2331C66.9502 26.2 64.8898 26.3593 62.0847 26.2694C57.1367 26.1138 51.9152 25.1462 51.9152 25.1462L51.5979 30.1398C51.5979 30.1398 55.3796 30.7375 62.9417 30.9466C63.388 30.9561 63.8322 30.9619 64.2742 30.9619C69.778 30.9619 76.4903 30.101 77.2255 25.5094C77.9002 21.2985 73.4773 19.4189 69.1697 17.4881" fill="#ffffff"/>
<path id="Vector_2" d="M107.726 21.3884C109.623 10.5974 100.071 8.49266 97.8316 8.15356C97.0037 8.04248 96.119 7.96282 95.1526 7.95332C85.121 7.86709 80.1059 14.2017 79.6821 19.4496C79.2985 24.2064 81.1014 31.2374 95.8382 31.2374C101.254 31.2374 104.731 30.4408 106.213 30.0104C106.37 29.0107 106.693 26.9644 106.94 25.3917C106.209 25.5547 101.795 26.4989 96.9848 26.4989C96.833 26.4989 96.6886 26.4909 96.5413 26.4894C89.8458 26.2614 88.514 22.9684 88.5045 21.4593L88.4957 21.3884H107.725H107.726ZM88.8706 17.1549C89.2907 14.7929 91.109 12.3988 94.9681 12.3761C100.586 12.4229 100.216 17.1549 100.216 17.1549H88.8706Z" fill="#ffffff"/>
<path id="Vector_3" d="M196.791 21.3884C198.686 10.5974 189.136 8.49266 186.898 8.15356C186.072 8.04248 185.184 7.96282 184.218 7.95332C174.186 7.86709 169.173 14.2017 168.749 19.4496C168.364 24.2064 170.165 31.2374 184.903 31.2374C190.319 31.2374 193.796 30.4408 195.281 30.0104C195.436 29.0107 195.758 26.9644 196.005 25.3917C195.275 25.5547 190.862 26.4989 186.051 26.4989C185.898 26.4989 185.754 26.4909 185.607 26.4894C178.911 26.2614 177.579 22.9684 177.571 21.4593L177.562 21.3884H196.791ZM177.937 17.1549C178.357 14.7929 180.175 12.3988 184.033 12.3761C189.653 12.4229 189.28 17.1549 189.28 17.1549H177.937Z" fill="#ffffff"/>
<path id="Vector_4" d="M129.212 16.0711C128.962 20.0459 128.273 30.7609 128.273 30.7609H137.097L138.041 15.8379C138.463 9.06194 133.679 8.56135 130.514 8.23395C130.302 8.2091 128.62 8.07536 126.319 8.07536C125.723 8.07536 125.087 8.0834 124.426 8.10606C118.936 8.29387 111.965 9.10726 111.965 9.10726L110.582 30.7602H119.438L120.515 13.1844C120.515 13.1844 123.655 12.7328 126.13 12.8417C126.972 12.8782 129.414 12.8358 129.211 16.0703" fill="#ffffff"/>
<path id="Vector_5" d="M47.4056 0H40.077L39.635 5.87638H49.0912C49.0912 5.87638 49.3319 2.52492 49.3662 1.9622C49.45 0.646028 48.9227 0 47.4049 0" fill="#ffffff"/>
<path id="Vector_6" d="M158.336 17.4859L154.952 16.0652C152.587 15.1137 150.8 14.4114 151.11 13.4314C151.288 12.8833 152.374 12.5201 155.619 12.5143C160.704 12.5077 165.774 13.6192 165.774 13.6192L166.227 8.97645C166.227 8.97645 161.462 7.95187 155.772 7.88317C153.194 7.85394 151.337 7.95186 149.561 8.20545C146.546 8.6359 141.448 9.9528 141.195 14.1688C140.932 18.4864 146.084 20.3711 149.232 21.6822L151.841 22.717C154.818 23.9141 156.216 24.3496 156.168 25.2317C156.115 26.1963 154.057 26.3557 151.251 26.268C146.302 26.1123 141.082 25.1433 141.082 25.1433L140.765 30.1383C140.765 30.1383 144.548 30.7354 152.108 30.9436C152.553 30.9546 152.998 30.959 153.442 30.959C158.945 30.959 165.656 30.0988 166.393 25.5065C167.066 21.2956 162.645 19.4174 158.337 17.4852" fill="#ffffff"/>
<path id="Vector_7" d="M25.8953 0L25.0609 10.7662H11.222L11.9039 1.9622C11.9251 0.0708861 10.3263 0 9.5313 0H2.39303L0 30.8041H9.66623L10.7245 17.1885H24.5627L23.5059 30.8041H33.1408L35.5287 0H25.896H25.8953Z" fill="#ffffff"/>
<path id="Vector_8" d="M39.3995 8.3896L37.6797 30.8048H47.1249L48.8542 8.3896H39.3995Z" fill="#ffffff"/>
</g>
</svg>
